{"title":"Troy.TC.2004.BRRip.720p.X264.AC3.mkv","uid":8229719,"size":837070250,"categoryP":"video","categoryS":"hd___movies","magnet":"?xt=urn:btih:36cd665766a0377f50747e62d65871bb180fd89b&amp;dn=Troy.TC.2004.BRRip.720p.X264.AC3.mkv&amp;tr=udp%3A%2F%2Ftracker.openbittorrent.com%3A80&amp;tr=udp%3A%2F%2Fopen.demonii.com%3A1337&amp;tr=udp%3A%2F%2Ftracker.coppersurfer.tk%3A6969&amp;tr=udp%3A%2F%2Fexodus.desync.com%3A6969","seeders":1,"leechers":0,"uploader":"roalush","files":-1,"time":1362697911,"description":"Complete name                  : Troy.TC.2004.BRRip.720p.X264.AC3.mkv\nFormat                         : Matroska\nFormat version                 : Version 4 / Version 2\nFile size                      : 1.84 GiB\nDuration                       : 2h 42mn\nOverall bit rate               : 1 619 Kbps\nEncoded date                   : UTC 2013-02-12 16:50:44\nWriting application            : mkvmerge v6.0.0 ('Coming Up For Air') built on Feb  3 2013 18:12:30\nWriting library                : libebml v1.3.0 + libmatroska v1.4.0\n\nVideo\nID                             : 1\nFormat                         : AVC\nFormat/Info                    : Advanced Video Codec\nFormat profile                 : &lt;a class=&quot;__cf_email__&quot; href=&quot;/cdn-cgi/l/email-protection&quot; data-cfemail=&quot;9bd3f2fcf3dbd7a8b5aa&quot;&gt;[email&amp;#160;protected]&lt;/a&gt;&lt;script cf-hash='f9e31' type=&quot;text/javascript&quot;&gt;\n/* &lt;![CDATA[ */!function(){try{var t=&quot;currentScript&quot;in document?document.currentScript:function(){for(var t=document.getElementsByTagName(&quot;script&quot;),e=t.length;e--;)if(t[e].getAttribute(&quot;cf-hash&quot;))return t[e]}();if(t&amp;&amp;t.previousSibling){var e,r,n,i,c=t.previousSibling,a=c.getAttribute(&quot;data-cfemail&quot;);if(a){for(e=&quot;&quot;,r=parseInt(a.substr(0,2),16),n=2;a.length-n;n+=2)i=parseInt(a.substr(n,2),16)^r,e+=String.fromCharCode(i);e=document.createTextNode(e),c.parentNode.replaceChild(e,c)}}}catch(u){}}();/* ]]&gt; */&lt;/script&gt;\nFormat settings, CABAC         : Yes\nFormat settings, ReFrames      : 5 frames\nCodec ID                       : V_MPEG4/ISO/AVC\nDuration                       : 2h 42mn\nBit rate                       : 1 139 Kbps\nNominal bit rate               : 1 200 Kbps\nWidth                          : 1 280 pixels\nHeight                         : 532 pixels\nDisplay aspect ratio           : 2.40:1\nFrame rate mode                : Constant\nFrame rate                     : 23.976 fps\nColor space                    : YUV\nChroma subsampling             : 4:2:0\nBit depth                      : 8 bits\nScan type                      : Progressive\nBits/(Pixel*Frame)             : 0.070\nStream size                    : 1.29 GiB (70%)\nWriting library                : x264 core 128 r2216 198a7ea\n\nAudio\nID                             : 2\nFormat                         : AC-3\nFormat/Info                    : Audio Coding 3\nMode extension                 : CM (complete main)\nFormat settings, Endianness    : Big\nCodec ID                       : A_AC3\nDuration                       : 2h 42mn\nBit rate mode                  : Constant\nBit rate                       : 448 Kbps\nChannel(s)                     : 6 channels\nChannel positions              : Front: L C R, Side: L R, LFE\nSampling rate                  : 48.0 KHz\nBit depth                      : 16 bits\nCompression mode               : Lossy\nStream size                    : 522 MiB (28%)\nDefault                        : Yes\nForced                         : No\n\nFor those, like me, who prefer the shorter version (I think this BluRay came out only in Russia)","torrent":{"xt":"urn:btih:36cd665766a0377f50747e62d65871bb180fd89b","amp;dn":"Troy.TC.2004.BRRip.720p.X264.AC3.mkv","amp;tr":["udp%3A%2F%2Ftracker.openbittorrent.com%3A80","udp%3A%2F%2Fopen.demonii.com%3A1337","udp%3A%2F%2Ftracker.coppersurfer.tk%3A6969","udp%3A%2F%2Fexodus.desync.com%3A6969"],"infoHash":"36cd665766a0377f50747e62d65871bb180fd89b","infoHashBuffer":{"type":"Buffer","data":[54,205,102,87,102,160,55,127,80,116,126,98,214,88,113,187,24,15,216,155]},"announce":[],"urlList":[]}}